<?xml version="1.0" standalone="no"?><!DOCTYPE svg PUBLIC "-//W3C//DTD SVG 1.1//EN" "http://www.w3.org/Graphics/SVG/1.1/DTD/svg11.dtd"><svg t="1753069277902" class="icon" viewBox="0 0 1024 1024" version="1.1" xmlns="http://www.w3.org/2000/svg" p-id="5881" xmlns:xlink="http://www.w3.org/1999/xlink" width="200" height="200"><path d="M708.8 452c18.057143 2.514286 35.085714-3.542857 33.142857-27.085714-2.057143-23.542857-62.285714-23.085714-87.314286-19.542857-21.028571 1.942857-41.6 7.542857-60.8 16.571428-12.571429 6.057143-29.6 16.114286-27.085714 29.6 2.514286 13.6 24.571429 16.571429 50.171429 23.542857 29.371429 7.2 56.685714 21.142857 79.771428 40.685715 14.514286 15.542857 38.628571 5.028571 35.657143-17.028572-3.542857-20.571429-53.257143-41.714286-69.828571-46.742857 15.428571-1.714286 30.971429-1.714286 46.285714 0zM274.514286 500.685714c0 12.8 10.285714 23.085714 23.085714 23.085715 5.714286 0 11.314286-2.171429 15.542857-6.057143 22.971429-19.542857 50.171429-33.6 79.314286-41.142857 23.542857-6.971429 44.685714-7.542857 47.657143-24.114286 2.971429-16.571429-15.085714-23.085714-27.085715-29.142857-19.314286-9.028571-40-14.628571-61.257142-16.571429-25.142857-3.542857-84.342857-9.028571-86.857143 19.542857-2.514286 28.571429 15.085714 29.6 33.142857 27.085715 15.314286-1.828571 30.857143-1.828571 46.171428 0-17.028571 5.142857-66.742857 26.285714-69.714285 47.314285z" fill="#d4237a" p-id="5882"></path><path d="M875.428571 753.714286c-29.142857-21.714286-69.714286-19.2-95.885714 6.057143-12 8.571429-22.057143 18.628571-33.142857 27.657142-13.714286 11.542857-28.457143 21.6-44.228571 30.171429-35.314286 18.514286-73.485714 30.971429-112.914286 36.685714-46.857143 7.314286-94.4 8.685714-141.6 4-41.6-3.542857-82.4-13.485714-121.028572-29.6-34.971429-14.971429-66.285714-37.6-91.314285-66.285714-27.2-30.742857-44.685714-68.8-50.171429-109.485714-2.628571-20.8-3.428571-41.828571-2.514286-62.742857 1.028571-24.114286 2.514286-49.714286 5.485715-74.285715 5.942857-50.971429 16-101.257143 30.171428-150.628571 13.257143-48.228571 30.057143-95.314286 50.171429-141.028572 5.485714-11.085714 11.085714-22.057143 17.028571-33.142857 2.857143-6.057143 6.057143-11.885714 9.485715-17.6 4-4 2.514286-4 4-4 1.485714 0 3.542857-0.457143 6.971428 4 14.057143 18.628571 26.971429 38.057143 38.628572 58.285715 5.6 12.114286 15.657143 21.485714 28.114285 26.057142 9.371429 2.285714 19.2 2.285714 28.571429 0 12-2.514286 24.571429-6.057143 36.685714-6.057142 50.057143-6.171429 100.8-5.028571 150.628572 3.542857 18.628571 5.485714 38.171429 13.6 54.742857 0 10.971429-12.114286 20.228571-25.6 27.657143-40.114286 6.514286-10.514286 13.6-20.571429 20.571428-30.171429 1.485714-2.057143 6.057143-9.485714 10.514286-9.485714s9.485714 9.028571 9.485714 9.028572c11.542857 22.057143 22.628571 44.228571 32.685714 67.314285 41.028571 92.914286 66.514286 192 75.314286 293.142857 6.514286 45.257143 5.028571 91.314286-4.571428 136-3.542857 8.342857-4.914286 17.485714-4 26.628572 2.4 8.228571 8.8 14.628571 17.028571 17.028571 8.685714 2.742857 18.171429 0.342857 24.571429-6.057143 6.4-8 10.514286-17.485714 12-27.657142 9.485714-43.657143 11.657143-88.685714 6.514285-133.028572-3.2-50.742857-10.628571-101.142857-22.057143-150.628571-11.428571-49.942857-26.742857-98.971429-45.714285-146.628572-17.371429-44.571429-38.514286-87.542857-63.2-128.571428-10.171429-17.371429-31.542857-24.571429-50.171429-17.028572-9.714286 4.571429-18.057143 11.657143-24.114286 20.571429-16 19.2-30.4 39.657143-43.2 61.257143-1.942857 2.514286-3.657143 5.142857-5.028571 8-1.028571 1.028571-2.514286 5.485714-5.028571 5.485714-2.857143 0.457143-5.714286 0.457143-8.571429 0h-8c-25.257143-4.114286-50.742857-6.857143-76.342857-8-24.457143-1.485714-48.914286-1.485714-73.257143 0l-36.685714 5.028571h-10.514286c-2.971429 1.028571-6.057143 1.028571-9.028571 0-3.542857-1.028571-6.971429-7.542857-9.485715-11.085714-12.685714-20.685714-26.742857-40.457143-42.171428-59.2-6.057143-9.257143-14.057143-16.914286-23.542857-22.628571-8.8-4.457143-19.085714-5.485714-28.571429-2.971429-21.6 5.485714-28.571429 24.571429-40.114286 46.171429-11.542857 21.6-22.628571 43.657143-32.685714 66.285714-20.457143 46.171429-37.257143 93.828571-50.171429 142.628571-13.257143 48.342857-22.857143 97.714286-28.571428 147.542858-5.028571 25.142857-5.028571 50.171429-5.028572 75.314285-1.485714 20.571429-1.485714 41.142857 0 61.714286 5.028571 41.828571 19.771429 81.942857 43.2 117.028571 22.285714 33.714286 51.314286 62.514286 85.371429 84.342858 73.485714 43.085714 157.828571 64.114286 242.971429 60.8 44 0.114286 87.771429-4.914286 130.514285-15.085715 39.314286-9.257143 76.914286-24.685714 111.428572-45.714285 16-10.285714 31.085714-21.828571 45.142857-34.628572 11.085714-11.314286 23.771429-20.914286 37.6-28.571428 4.571429-2.514286 10.057143-2.514286 14.514286 0l0.114285 0.114285c5.942857 4.571429 6.971429 13.142857 2.4 18.971429-6.057143 7.542857-16.114286 6.057143-23.542857 10.514286-4 2.285714-7.2 5.485714-9.485714 9.485714-6.857143 12.114286-2.628571 27.428571 9.485714 34.171428 17.485714 5.828571 36.8 1.6 50.171429-11.085714 14.857143-11.542857 24.114286-28.914286 25.142857-47.657143 1.485714-18.742857-5.714286-37.257143-19.428572-50.171428z" fill="#d4237a" p-id="5883"></path></svg>